<?xml version="1.0" encoding="UTF-8"?>
<!DOCTYPE svg PUBLIC "-//W3C//DTD SVG 1.1//EN" "http://www.w3.org/Graphics/SVG/1.1/DTD/svg11.dtd">
<svg xmlns="http://www.w3.org/2000/svg" version="1.1" width="594px" height="420px" style="shape-rendering:geometricPrecision; text-rendering:geometricPrecision; image-rendering:optimizeQuality; fill-rule:evenodd; clip-rule:evenodd" xmlns:xlink="http://www.w3.org/1999/xlink">
<g><path style="opacity:1" fill="#129dc4" d="M 138.5,66.5 C 139.401,67.2905 140.068,68.2905 140.5,69.5C 140.649,70.552 140.483,71.552 140,72.5C 139.581,71.3279 138.915,70.3279 138,69.5C 149.059,96.2991 160.726,122.966 173,149.5C 174.5,152.133 174.667,154.8 173.5,157.5C 180.771,163.157 183.105,170.491 180.5,179.5C 179.833,178.833 179.167,178.167 178.5,177.5C 177.509,181.445 177.176,185.445 177.5,189.5C 175.5,189.5 173.5,189.5 171.5,189.5C 171.5,191.5 171.5,193.5 171.5,195.5C 169.5,195.5 167.5,195.5 165.5,195.5C 165.5,197.5 165.5,199.5 165.5,201.5C 163.5,201.5 161.5,201.5 159.5,201.5C 159.5,203.5 159.5,205.5 159.5,207.5C 157.833,207.5 156.167,207.5 154.5,207.5C 153.866,213.145 153.532,218.811 153.5,224.5C 152.167,224.5 150.833,224.5 149.5,224.5C 150.833,230.5 148.5,232.833 142.5,231.5C 142.738,234.408 141.738,236.742 139.5,238.5C 142.329,239.825 142.996,241.825 141.5,244.5C 140.185,242.684 138.685,241.017 137,239.5C 136.13,240.108 135.63,240.941 135.5,242C 137.031,245.027 138.031,248.193 138.5,251.5C 138.5,252.5 138.5,253.5 138.5,254.5C 137.325,254.719 136.325,254.386 135.5,253.5C 128.243,238.651 121.243,223.651 114.5,208.5C 113.575,207.438 112.575,207.438 111.5,208.5C 110.662,208.158 110.328,207.492 110.5,206.5C 111.622,204.712 111.789,202.712 111,200.5C 91.9673,159.736 72.634,119.069 53,78.5C 52.6053,76.8214 52.772,75.1547 53.5,73.5C 51.8793,71.3761 50.046,69.3761 48,67.5C 44.8548,60.5504 42.0214,53.5504 39.5,46.5C 68.5019,46.3334 97.5019,46.5 126.5,47C 130.01,54.2192 133.51,61.3859 137,68.5C 137.278,67.5842 137.778,66.9175 138.5,66.5 Z"/></g>
<g><path style="opacity:1" fill="#a6c851" d="M 476.5,49.5 C 477.953,50.8249 477.619,51.6582 475.5,52C 487.32,55.5387 498.986,59.5387 510.5,64C 521.173,70.3333 531.84,76.6666 542.5,83C 543.819,83.195 545.153,83.0283 546.5,82.5C 550.792,85.6198 554.959,88.9531 559,92.5C 559.667,93.8333 559.667,95.1667 559,96.5C 550.923,104.417 542.423,111.75 533.5,118.5C 532.761,118.631 532.094,118.464 531.5,118C 532.696,117.346 532.696,116.846 531.5,116.5C 529.684,117.815 528.017,119.315 526.5,121C 525.552,121.483 524.552,121.649 523.5,121.5C 523.719,122.675 523.386,123.675 522.5,124.5C 519.216,126.117 516.549,128.45 514.5,131.5C 513.5,132.167 512.5,132.833 511.5,133.5C 510.784,132.689 509.95,132.022 509,131.5C 505.949,133.266 503.783,135.766 502.5,139C 501.552,139.483 500.552,139.649 499.5,139.5C 499.343,138.127 499.51,136.793 500,135.5C 502.167,134.667 503.667,133.167 504.5,131C 500.774,130.039 498.608,131.539 498,135.5C 497,134.167 496,134.167 495,135.5C 494.667,137.047 495.167,138.38 496.5,139.5C 496.167,139.833 495.833,140.167 495.5,140.5C 485.792,132.212 474.959,125.878 463,121.5C 462.5,121.667 462,121.833 461.5,122C 464.093,122.886 466.093,124.386 467.5,126.5C 464.011,125.342 460.678,124.009 457.5,122.5C 458.263,121.732 459.263,121.232 460.5,121C 460.167,120.667 459.833,120.333 459.5,120C 412.668,108.084 374.502,120.584 345,157.5C 337.837,167.846 333.171,178.513 331,189.5C 328.571,191.87 328.071,194.537 329.5,197.5C 328.766,198.708 328.433,200.041 328.5,201.5C 327.301,205.769 326.301,210.103 325.5,214.5C 321.257,224.782 317.924,235.449 315.5,246.5C 312.901,253.375 310.568,260.375 308.5,267.5C 306.707,271.666 305.374,276 304.5,280.5C 303.262,282.214 302.595,284.214 302.5,286.5C 300.018,288.503 299.018,291.169 299.5,294.5C 299.029,296.579 298.363,298.579 297.5,300.5C 295.812,303.223 294.312,306.223 293,309.5C 291.658,308.098 290.824,308.431 290.5,310.5C 291.44,313.132 291.607,315.798 291,318.5C 288.683,325.451 286.35,332.451 284,339.5C 282.805,343.751 282.305,348.085 282.5,352.5C 282.5,352.833 282.5,353.167 282.5,353.5C 281.732,352.737 281.232,351.737 281,350.5C 280.667,350.833 280.333,351.167 280,351.5C 278.341,358.776 276.174,365.776 273.5,372.5C 246.5,372.5 219.5,372.5 192.5,372.5C 192.5,370.833 192.5,369.167 192.5,367.5C 192.216,365.585 192.549,363.919 193.5,362.5C 194.924,360.485 195.59,358.152 195.5,355.5C 195.5,354.833 195.5,354.167 195.5,353.5C 196.848,348.807 198.515,344.14 200.5,339.5C 201.924,337.485 202.59,335.152 202.5,332.5C 203.924,330.485 204.59,328.152 204.5,325.5C 206.61,321.498 207.943,317.165 208.5,312.5C 208.5,312.167 208.5,311.833 208.5,311.5C 209.924,309.485 210.59,307.152 210.5,304.5C 212.472,301.916 213.472,298.916 213.5,295.5C 213.5,295.167 213.5,294.833 213.5,294.5C 215.277,291.495 216.277,288.162 216.5,284.5C 216.5,283.833 216.5,283.167 216.5,282.5C 218.074,280.898 218.741,278.898 218.5,276.5C 219.434,275.432 219.768,274.099 219.5,272.5C 220.924,270.485 221.59,268.152 221.5,265.5C 222.537,264.07 223.204,262.403 223.5,260.5C 225.302,256.22 227.135,251.887 229,247.5C 231.484,237.888 233.65,228.221 235.5,218.5C 236.496,218.586 237.329,218.252 238,217.5C 238.915,211.503 240.415,205.669 242.5,200C 242.056,198.238 241.556,198.405 241,200.5C 240.48,198.711 240.813,197.044 242,195.5C 242.317,197.301 242.984,197.634 244,196.5C 244.557,194.385 245.391,192.385 246.5,190.5C 251.3,155.223 267.8,124.223 296,97.5C 296.667,96.8333 296.667,96.1667 296,95.5C 294.833,96.6667 293.667,97.8333 292.5,99C 291.563,99.6917 290.897,99.525 290.5,98.5C 296.554,92.1126 303.221,86.4459 310.5,81.5C 311.043,81.56 311.376,81.8933 311.5,82.5C 310.395,83.8924 309.061,85.059 307.5,86C 307.833,86.1667 308.167,86.3333 308.5,86.5C 335.816,66.508 366.149,53.6747 399.5,48C 398.263,47.7679 397.263,47.2679 396.5,46.5C 398.969,45.6829 401.635,45.1829 404.5,45C 428.758,43.1913 452.758,44.6913 476.5,49.5 Z"/></g>
<g><path style="opacity:0.164" fill="#a4c251" d="M 476.5,49.5 C 502.239,55.706 525.572,66.706 546.5,82.5C 545.153,83.0283 543.819,83.195 542.5,83C 531.84,76.6666 521.173,70.3333 510.5,64C 498.986,59.5387 487.32,55.5387 475.5,52C 477.619,51.6582 477.953,50.8249 476.5,49.5 Z"/></g>
<g><path style="opacity:0.114" fill="#a1c153" d="M 396.5,46.5 C 397.263,47.2679 398.263,47.7679 399.5,48C 366.149,53.6747 335.816,66.508 308.5,86.5C 308.167,86.3333 307.833,86.1667 307.5,86C 309.061,85.059 310.395,83.8924 311.5,82.5C 311.376,81.8933 311.043,81.56 310.5,81.5C 336.043,62.747 364.709,51.0804 396.5,46.5 Z"/></g>
<g><path style="opacity:0.143" fill="#1095ba" d="M 138.5,66.5 C 137.778,66.9175 137.278,67.5842 137,68.5C 133.51,61.3859 130.01,54.2192 126.5,47C 97.5019,46.5 68.5019,46.3334 39.5,46.5C 42.0214,53.5504 44.8548,60.5504 48,67.5C 50.046,69.3761 51.8793,71.3761 53.5,73.5C 52.772,75.1547 52.6053,76.8214 53,78.5C 72.634,119.069 91.9673,159.736 111,200.5C 111.789,202.712 111.622,204.712 110.5,206.5C 85.1209,153.572 60.1209,100.406 35.5,47C 35.7549,45.6739 36.4216,44.6739 37.5,44C 39.3333,43.8333 41.1667,43.6667 43,43.5C 70.8406,43.4897 98.6739,43.6564 126.5,44C 127.766,44.3095 128.933,44.8095 130,45.5C 132.853,52.5319 135.686,59.5319 138.5,66.5 Z"/></g>
<g><path style="opacity:0.058" fill="#a4c34f" d="M 457.5,122.5 C 412.425,111.579 375.592,124.246 347,160.5C 339.171,172.825 334.004,186.158 331.5,200.5C 330.833,199.5 330.167,198.5 329.5,197.5C 328.071,194.537 328.571,191.87 331,189.5C 333.171,178.513 337.837,167.846 345,157.5C 374.502,120.584 412.668,108.084 459.5,120C 459.833,120.333 460.167,120.667 460.5,121C 459.263,121.232 458.263,121.732 457.5,122.5 Z"/></g>
<g><path style="opacity:1" fill="#a5c452" d="M 533.5,118.5 C 522.733,129.105 511.233,138.772 499,147.5C 498.167,147.333 497.333,147.167 496.5,147C 488.173,138.179 478.507,131.345 467.5,126.5C 466.093,124.386 464.093,122.886 461.5,122C 462,121.833 462.5,121.667 463,121.5C 474.959,125.878 485.792,132.212 495.5,140.5C 495.833,140.167 496.167,139.833 496.5,139.5C 495.167,138.38 494.667,137.047 495,135.5C 496,134.167 497,134.167 498,135.5C 498.608,131.539 500.774,130.039 504.5,131C 503.667,133.167 502.167,134.667 500,135.5C 499.51,136.793 499.343,138.127 499.5,139.5C 500.552,139.649 501.552,139.483 502.5,139C 503.783,135.766 505.949,133.266 509,131.5C 509.95,132.022 510.784,132.689 511.5,133.5C 512.5,132.833 513.5,132.167 514.5,131.5C 516.549,128.45 519.216,126.117 522.5,124.5C 523.386,123.675 523.719,122.675 523.5,121.5C 524.552,121.649 525.552,121.483 526.5,121C 528.017,119.315 529.684,117.815 531.5,116.5C 532.696,116.846 532.696,117.346 531.5,118C 532.094,118.464 532.761,118.631 533.5,118.5 Z"/></g>
<g><path style="opacity:0.117" fill="#9fc150" d="M 235.5,218.5 C 236.486,214.557 237.152,210.557 237.5,206.5C 242.77,186.191 248.937,166.191 256,146.5C 264.336,128.135 275.836,112.135 290.5,98.5C 290.897,99.525 291.563,99.6917 292.5,99C 293.667,97.8333 294.833,96.6667 296,95.5C 296.667,96.1667 296.667,96.8333 296,97.5C 267.8,124.223 251.3,155.223 246.5,190.5C 245.391,192.385 244.557,194.385 244,196.5C 242.984,197.634 242.317,197.301 242,195.5C 240.813,197.044 240.48,198.711 241,200.5C 241.556,198.405 242.056,198.238 242.5,200C 240.415,205.669 238.915,211.503 238,217.5C 237.329,218.252 236.496,218.586 235.5,218.5 Z"/></g>
<g><path style="opacity:1" fill="#1198bd" d="M 140.5,69.5 C 158.755,109.091 176.422,149.091 193.5,189.5C 192.25,189.423 191.417,188.756 191,187.5C 190.761,189.959 191.261,192.293 192.5,194.5C 191.504,194.586 190.671,194.252 190,193.5C 188.246,195.25 186.079,195.917 183.5,195.5C 183.5,197.5 183.5,199.5 183.5,201.5C 181.5,201.5 179.5,201.5 177.5,201.5C 177.5,205.167 177.5,208.833 177.5,212.5C 173.821,212.724 170.154,213.058 166.5,213.5C 166.665,217.182 166.499,220.848 166,224.5C 164.644,225.38 163.144,225.714 161.5,225.5C 160.833,229.167 160.167,232.833 159.5,236.5C 154.5,235.5 152.5,237.5 153.5,242.5C 152.5,242.5 151.5,242.5 150.5,242.5C 150.5,244.5 150.5,246.5 150.5,248.5C 146.406,247.705 143.239,249.038 141,252.5C 140.329,251.748 139.496,251.414 138.5,251.5C 138.031,248.193 137.031,245.027 135.5,242C 135.63,240.941 136.13,240.108 137,239.5C 138.685,241.017 140.185,242.684 141.5,244.5C 142.996,241.825 142.329,239.825 139.5,238.5C 141.738,236.742 142.738,234.408 142.5,231.5C 148.5,232.833 150.833,230.5 149.5,224.5C 150.833,224.5 152.167,224.5 153.5,224.5C 153.532,218.811 153.866,213.145 154.5,207.5C 156.167,207.5 157.833,207.5 159.5,207.5C 159.5,205.5 159.5,203.5 159.5,201.5C 161.5,201.5 163.5,201.5 165.5,201.5C 165.5,199.5 165.5,197.5 165.5,195.5C 167.5,195.5 169.5,195.5 171.5,195.5C 171.5,193.5 171.5,191.5 171.5,189.5C 173.5,189.5 175.5,189.5 177.5,189.5C 177.176,185.445 177.509,181.445 178.5,177.5C 179.167,178.167 179.833,178.833 180.5,179.5C 183.105,170.491 180.771,163.157 173.5,157.5C 174.667,154.8 174.5,152.133 173,149.5C 160.726,122.966 149.059,96.2991 138,69.5C 138.915,70.3279 139.581,71.3279 140,72.5C 140.483,71.552 140.649,70.552 140.5,69.5 Z"/></g>
<g><path style="opacity:0.035" fill="#138da9" d="M 193.5,189.5 C 199.582,200.711 204.915,212.377 209.5,224.5C 209.5,225.5 209.5,226.5 209.5,227.5C 208.857,225.924 207.857,224.59 206.5,223.5C 204.293,216.094 201.293,209.094 197.5,202.5C 195.838,199.88 194.172,197.213 192.5,194.5C 191.261,192.293 190.761,189.959 191,187.5C 191.417,188.756 192.25,189.423 193.5,189.5 Z"/></g>
<g><path style="opacity:0.649" fill="#688d4d" d="M 329.5,197.5 C 330.167,198.5 330.833,199.5 331.5,200.5C 331.5,202.167 331.5,203.833 331.5,205.5C 330.022,204.552 329.022,203.219 328.5,201.5C 328.433,200.041 328.766,198.708 329.5,197.5 Z"/></g>
<g><path style="opacity:0.029" fill="#26594d" d="M 328.5,201.5 C 329.022,203.219 330.022,204.552 331.5,205.5C 331.5,208.5 331.5,211.5 331.5,214.5C 330.833,213.833 330.167,213.167 329.5,212.5C 329.719,211.325 329.386,210.325 328.5,209.5C 327.304,211.145 326.304,212.811 325.5,214.5C 326.301,210.103 327.301,205.769 328.5,201.5 Z"/></g>
<g><path style="opacity:1" fill="#108caf" d="M 197.5,205.5 C 199.685,209.213 201.352,213.213 202.5,217.5C 201.193,218.153 199.86,218.82 198.5,219.5C 191.996,231.829 183.496,242.495 173,251.5C 172.333,252.833 171.667,254.167 171,255.5C 167.306,258.105 164.14,261.272 161.5,265C 160.128,265.402 158.795,265.902 157.5,266.5C 156.779,268.686 156.113,270.853 155.5,273C 156.654,273.914 156.487,274.747 155,275.5C 147.585,271.255 146.585,272.588 152,279.5C 152.669,276.972 153.502,276.972 154.5,279.5C 153.395,281.611 151.729,282.945 149.5,283.5C 148.957,283.56 148.624,283.893 148.5,284.5C 149.167,285.833 149.833,287.167 150.5,288.5C 150.03,289.463 149.363,289.463 148.5,288.5C 144.3,279.888 140.3,271.222 136.5,262.5C 137.305,260.787 138.305,259.121 139.5,257.5C 139.95,262.133 141.283,266.466 143.5,270.5C 144.971,269.619 145.804,268.286 146,266.5C 147.343,267.214 148.676,266.88 150,265.5C 150.333,263.5 150.667,261.5 151,259.5C 155.719,255.447 159.719,250.781 163,245.5C 164.667,244.5 166.333,243.5 168,242.5C 167.803,237.886 169.969,235.886 174.5,236.5C 174.962,232.697 175.962,229.031 177.5,225.5C 179.638,225.297 181.305,224.297 182.5,222.5C 184.289,219.758 185.956,216.925 187.5,214C 188.793,213.51 190.127,213.343 191.5,213.5C 191.032,209.869 191.699,206.535 193.5,203.5C 194.167,202.167 194.833,202.167 195.5,203.5C 193.645,205.544 192.978,207.711 193.5,210C 193.833,210.167 194.167,210.333 194.5,210.5C 195.275,208.604 196.275,206.937 197.5,205.5 Z"/></g>
<g><path style="opacity:1" fill="#1193b7" d="M 192.5,194.5 C 194.172,197.213 195.838,199.88 197.5,202.5C 197.5,203.5 197.5,204.5 197.5,205.5C 196.275,206.937 195.275,208.604 194.5,210.5C 194.167,210.333 193.833,210.167 193.5,210C 192.978,207.711 193.645,205.544 195.5,203.5C 194.833,202.167 194.167,202.167 193.5,203.5C 191.699,206.535 191.032,209.869 191.5,213.5C 190.127,213.343 188.793,213.51 187.5,214C 185.956,216.925 184.289,219.758 182.5,222.5C 181.305,224.297 179.638,225.297 177.5,225.5C 175.962,229.031 174.962,232.697 174.5,236.5C 169.969,235.886 167.803,237.886 168,242.5C 166.333,243.5 164.667,244.5 163,245.5C 159.719,250.781 155.719,255.447 151,259.5C 150.667,261.5 150.333,263.5 150,265.5C 148.676,266.88 147.343,267.214 146,266.5C 145.804,268.286 144.971,269.619 143.5,270.5C 141.283,266.466 139.95,262.133 139.5,257.5C 138.305,259.121 137.305,260.787 136.5,262.5C 127.326,244.961 118.993,226.961 111.5,208.5C 112.575,207.438 113.575,207.438 114.5,208.5C 121.243,223.651 128.243,238.651 135.5,253.5C 136.325,254.386 137.325,254.719 138.5,254.5C 138.5,253.5 138.5,252.5 138.5,251.5C 139.496,251.414 140.329,251.748 141,252.5C 143.239,249.038 146.406,247.705 150.5,248.5C 150.5,246.5 150.5,244.5 150.5,242.5C 151.5,242.5 152.5,242.5 153.5,242.5C 152.5,237.5 154.5,235.5 159.5,236.5C 160.167,232.833 160.833,229.167 161.5,225.5C 163.144,225.714 164.644,225.38 166,224.5C 166.499,220.848 166.665,217.182 166.5,213.5C 170.154,213.058 173.821,212.724 177.5,212.5C 177.5,208.833 177.5,205.167 177.5,201.5C 179.5,201.5 181.5,201.5 183.5,201.5C 183.5,199.5 183.5,197.5 183.5,195.5C 186.079,195.917 188.246,195.25 190,193.5C 190.671,194.252 191.504,194.586 192.5,194.5 Z"/></g>
<g><path style="opacity:1" fill="#0f80a0" d="M 197.5,202.5 C 201.293,209.094 204.293,216.094 206.5,223.5C 207.688,227.377 209.021,231.211 210.5,235C 209.566,238.154 208.899,237.988 208.5,234.5C 207.167,234.5 205.833,234.5 204.5,234.5C 204.5,235.5 204.5,236.5 204.5,237.5C 205.675,237.281 206.675,237.614 207.5,238.5C 205.02,239.415 204.353,240.915 205.5,243C 201.009,248.124 196.175,252.957 191,257.5C 190.517,258.448 190.351,259.448 190.5,260.5C 188.418,260.472 186.584,261.139 185,262.5C 184.272,265.702 182.772,268.868 180.5,272C 177.99,272.376 175.657,273.21 173.5,274.5C 172.022,277.288 170.689,280.122 169.5,283C 167.129,283.735 164.795,284.568 162.5,285.5C 161.358,287.803 160.025,289.97 158.5,292C 159.353,294.133 159.686,296.133 159.5,298C 158.552,298.483 157.552,298.649 156.5,298.5C 154.981,295.956 153.648,293.289 152.5,290.5C 154.63,288.873 156.63,287.04 158.5,285C 157.692,284.692 157.025,284.192 156.5,283.5C 159.205,281.293 161.371,278.626 163,275.5C 164,274.167 165,274.167 166,275.5C 169.159,273.556 168.659,272.39 164.5,272C 166.564,271.347 168.231,270.18 169.5,268.5C 170.386,267.675 170.719,266.675 170.5,265.5C 173.849,264.215 176.349,261.881 178,258.5C 181.721,256.281 184.554,253.281 186.5,249.5C 188.071,248.691 189.738,248.357 191.5,248.5C 191.351,247.448 191.517,246.448 192,245.5C 195.522,242.645 198.689,239.478 201.5,236C 202.711,232.986 204.044,229.986 205.5,227C 204.426,223.726 203.426,220.559 202.5,217.5C 201.352,213.213 199.685,209.213 197.5,205.5C 197.5,204.5 197.5,203.5 197.5,202.5 Z"/></g>
<g><path style="opacity:1" fill="#195354" d="M 325.5,214.5 C 325.111,219.956 323.778,225.123 321.5,230C 322.102,231.563 322.935,231.396 324,229.5C 324.756,231.809 324.256,233.809 322.5,235.5C 321.137,234.121 320.137,234.287 319.5,236C 318.433,239.716 317.099,243.216 315.5,246.5C 317.924,235.449 321.257,224.782 325.5,214.5 Z"/></g>
<g><path style="opacity:1" fill="#1086a8" d="M 202.5,217.5 C 203.426,220.559 204.426,223.726 205.5,227C 204.044,229.986 202.711,232.986 201.5,236C 198.689,239.478 195.522,242.645 192,245.5C 191.517,246.448 191.351,247.448 191.5,248.5C 189.738,248.357 188.071,248.691 186.5,249.5C 184.554,253.281 181.721,256.281 178,258.5C 176.349,261.881 173.849,264.215 170.5,265.5C 170.719,266.675 170.386,267.675 169.5,268.5C 168.231,270.18 166.564,271.347 164.5,272C 168.659,272.39 169.159,273.556 166,275.5C 165,274.167 164,274.167 163,275.5C 161.371,278.626 159.205,281.293 156.5,283.5C 157.025,284.192 157.692,284.692 158.5,285C 156.63,287.04 154.63,288.873 152.5,290.5C 151.773,288.046 150.773,285.713 149.5,283.5C 151.729,282.945 153.395,281.611 154.5,279.5C 153.502,276.972 152.669,276.972 152,279.5C 146.585,272.588 147.585,271.255 155,275.5C 156.487,274.747 156.654,273.914 155.5,273C 156.113,270.853 156.779,268.686 157.5,266.5C 158.795,265.902 160.128,265.402 161.5,265C 164.14,261.272 167.306,258.105 171,255.5C 171.667,254.167 172.333,252.833 173,251.5C 183.496,242.495 191.996,231.829 198.5,219.5C 199.86,218.82 201.193,218.153 202.5,217.5 Z"/></g>
<g><path style="opacity:1" fill="#0e7a97" d="M 206.5,223.5 C 207.857,224.59 208.857,225.924 209.5,227.5C 210.787,230.406 211.787,233.406 212.5,236.5C 213.505,240.198 214.838,243.865 216.5,247.5C 215.91,248.799 214.91,249.632 213.5,250C 213.957,250.414 214.291,250.914 214.5,251.5C 213.726,252.711 212.893,252.711 212,251.5C 210.711,253.553 209.378,255.553 208,257.5C 207.586,257.043 207.086,256.709 206.5,256.5C 203.345,259.489 200.345,262.656 197.5,266C 198.667,268.833 197.833,269.667 195,268.5C 184.644,278.023 174.811,288.023 165.5,298.5C 164.914,298.291 164.414,297.957 164,297.5C 162.234,299.596 160.901,301.929 160,304.5C 158.569,302.636 157.403,300.636 156.5,298.5C 157.552,298.649 158.552,298.483 159.5,298C 159.686,296.133 159.353,294.133 158.5,292C 160.025,289.97 161.358,287.803 162.5,285.5C 164.795,284.568 167.129,283.735 169.5,283C 170.689,280.122 172.022,277.288 173.5,274.5C 175.657,273.21 177.99,272.376 180.5,272C 182.772,268.868 184.272,265.702 185,262.5C 186.584,261.139 188.418,260.472 190.5,260.5C 190.351,259.448 190.517,258.448 191,257.5C 196.175,252.957 201.009,248.124 205.5,243C 204.353,240.915 205.02,239.415 207.5,238.5C 206.675,237.614 205.675,237.281 204.5,237.5C 204.5,236.5 204.5,235.5 204.5,234.5C 205.833,234.5 207.167,234.5 208.5,234.5C 208.899,237.988 209.566,238.154 210.5,235C 209.021,231.211 207.688,227.377 206.5,223.5 Z"/></g>
<g><path style="opacity:0.157" fill="#1e7f8e" d="M 209.5,224.5 C 214.351,234.209 218.684,244.209 222.5,254.5C 222.5,255.167 222.5,255.833 222.5,256.5C 219.367,249.793 216.034,243.126 212.5,236.5C 211.787,233.406 210.787,230.406 209.5,227.5C 209.5,226.5 209.5,225.5 209.5,224.5 Z"/></g>
<g><path style="opacity:0.188" fill="#1e676b" d="M 329.5,212.5 C 330.167,213.167 330.833,213.833 331.5,214.5C 333.132,229.752 338.132,243.752 346.5,256.5C 345.833,256.5 345.167,256.5 344.5,256.5C 342.819,253.797 341.153,251.131 339.5,248.5C 337.739,243.982 335.739,239.649 333.5,235.5C 331.842,227.884 330.508,220.217 329.5,212.5 Z"/></g>
<g><path style="opacity:0.757" fill="#91ba55" d="M 237.5,206.5 C 237.152,210.557 236.486,214.557 235.5,218.5C 233.65,228.221 231.484,237.888 229,247.5C 227.135,251.887 225.302,256.22 223.5,260.5C 223.5,258.5 223.5,256.5 223.5,254.5C 227.883,238.283 232.549,222.283 237.5,206.5 Z"/></g>
<g><path style="opacity:1" fill="#0b556a" d="M 329.5,212.5 C 330.508,220.217 331.842,227.884 333.5,235.5C 329.191,231.452 327.857,232.452 329.5,238.5C 328.197,240.377 326.697,242.043 325,243.5C 323.346,250.037 320.513,255.87 316.5,261C 316.887,262.823 317.221,264.657 317.5,266.5C 316.232,269.314 315.399,272.314 315,275.5C 311.622,279.845 308.789,283.845 306.5,287.5C 305.583,286.873 304.583,286.539 303.5,286.5C 304.15,284.565 304.483,282.565 304.5,280.5C 305.374,276 306.707,271.666 308.5,267.5C 309.79,266.942 310.623,265.942 311,264.5C 311.333,265.5 311.667,266.5 312,267.5C 312.333,264.5 312.667,261.5 313,258.5C 313.333,258.167 313.667,257.833 314,257.5C 314.333,258.5 314.667,259.5 315,260.5C 315.5,259 316,257.5 316.5,256C 315.633,252.895 315.299,249.728 315.5,246.5C 317.099,243.216 318.433,239.716 319.5,236C 320.137,234.287 321.137,234.121 322.5,235.5C 324.256,233.809 324.756,231.809 324,229.5C 322.935,231.396 322.102,231.563 321.5,230C 323.778,225.123 325.111,219.956 325.5,214.5C 326.304,212.811 327.304,211.145 328.5,209.5C 329.386,210.325 329.719,211.325 329.5,212.5 Z"/></g>
<g><path style="opacity:1" fill="#0d657e" d="M 331.5,251.5 C 333.099,252.799 333.599,254.465 333,256.5C 328.534,261.924 325.201,267.924 323,274.5C 318.979,282.541 314.979,290.541 311,298.5C 308.292,302.617 305.959,306.95 304,311.5C 303.25,312.126 302.416,312.626 301.5,313C 302.451,313.718 302.617,314.551 302,315.5C 300.641,317.692 298.808,319.359 296.5,320.5C 297.188,321.855 298.188,322.855 299.5,323.5C 301.237,325.55 303.237,327.383 305.5,329C 305.272,329.399 304.938,329.565 304.5,329.5C 295.494,325.166 292.494,318.166 295.5,308.5C 296.024,306.694 296.691,305.028 297.5,303.5C 298.167,302.5 298.833,301.5 299.5,300.5C 299.369,301.376 299.702,302.043 300.5,302.5C 301.457,299.72 302.624,297.053 304,294.5C 304.667,296.833 304.667,299.167 304,301.5C 302.257,303.321 300.757,305.321 299.5,307.5C 301.044,308.622 302.377,308.289 303.5,306.5C 304.039,303.789 305.372,301.623 307.5,300C 306.978,299.439 306.645,298.772 306.5,298C 309.353,289.79 313.353,282.29 318.5,275.5C 320.762,270.638 322.762,265.638 324.5,260.5C 326.502,257.174 328.835,254.174 331.5,251.5 Z"/></g>
<g><path style="opacity:1" fill="#17565b" d="M 315.5,246.5 C 315.299,249.728 315.633,252.895 316.5,256C 316,257.5 315.5,259 315,260.5C 314.667,259.5 314.333,258.5 314,257.5C 313.667,257.833 313.333,258.167 313,258.5C 312.667,261.5 312.333,264.5 312,267.5C 311.667,266.5 311.333,265.5 311,264.5C 310.623,265.942 309.79,266.942 308.5,267.5C 310.568,260.375 312.901,253.375 315.5,246.5 Z"/></g>
<g><path style="opacity:0.176" fill="#3f8573" d="M 222.5,254.5 C 222.833,254.5 223.167,254.5 223.5,254.5C 223.5,256.5 223.5,258.5 223.5,260.5C 223.204,262.403 222.537,264.07 221.5,265.5C 221.5,264.5 221.5,263.5 221.5,262.5C 222.341,260.621 222.675,258.621 222.5,256.5C 222.5,255.833 222.5,255.167 222.5,254.5 Z"/></g>
<g><path style="opacity:1" fill="#0e7996" d="M 344.5,256.5 C 345.167,256.5 345.833,256.5 346.5,256.5C 349.524,260.518 352.524,264.518 355.5,268.5C 354.778,268.918 354.278,269.584 354,270.5C 352.961,269.29 351.794,268.29 350.5,267.5C 349.599,265.273 347.933,264.273 345.5,264.5C 342.914,268.015 341.081,272.015 340,276.5C 338.333,277.5 337,278.833 336,280.5C 334.97,283.95 333.637,287.283 332,290.5C 325.957,299.862 319.957,309.195 314,318.5C 312.803,321.089 311.803,323.756 311,326.5C 309.926,327.618 308.76,328.618 307.5,329.5C 308.855,331.521 310.521,333.188 312.5,334.5C 314.066,334.976 314.4,335.643 313.5,336.5C 310.87,335.196 308.537,333.53 306.5,331.5C 305.5,331.167 304.833,330.5 304.5,329.5C 304.938,329.565 305.272,329.399 305.5,329C 303.237,327.383 301.237,325.55 299.5,323.5C 302.32,321.249 305.154,318.915 308,316.5C 308.92,313.899 309.587,311.232 310,308.5C 313.696,305.464 316.696,301.797 319,297.5C 320.315,292.862 322.482,288.695 325.5,285C 325.043,284.586 324.709,284.086 324.5,283.5C 329.198,277.366 333.032,270.699 336,263.5C 337.171,262.107 338.671,261.273 340.5,261C 342.431,256.646 344.431,256.812 346.5,261.5C 346.833,261.333 347.167,261.167 347.5,261C 346.614,259.385 345.614,257.885 344.5,256.5 Z"/></g>
<g><path style="opacity:1" fill="#0d718d" d="M 212.5,236.5 C 216.034,243.126 219.367,249.793 222.5,256.5C 222.675,258.621 222.341,260.621 221.5,262.5C 220.71,261.391 220.21,260.058 220,258.5C 219.385,260.116 218.385,261.449 217,262.5C 216.68,259.46 216.68,256.46 217,253.5C 216.085,254.328 215.419,255.328 215,256.5C 214.667,259.167 214.333,261.833 214,264.5C 209.778,267.969 205.778,271.636 202,275.5C 201.517,276.448 201.351,277.448 201.5,278.5C 200.07,278.421 198.736,278.754 197.5,279.5C 195.927,283.567 193.427,286.9 190,289.5C 189.586,289.043 189.086,288.709 188.5,288.5C 186.167,290.833 183.833,293.167 181.5,295.5C 182.347,297.061 182.014,298.561 180.5,300C 175.438,301.626 170.938,304.793 167,309.5C 164.955,307.957 163.455,308.29 162.5,310.5C 161.685,309.571 160.852,308.571 160,307.5C 159.768,308.737 159.268,309.737 158.5,310.5C 155.169,303.171 151.836,295.838 148.5,288.5C 149.363,289.463 150.03,289.463 150.5,288.5C 149.833,287.167 149.167,285.833 148.5,284.5C 148.624,283.893 148.957,283.56 149.5,283.5C 150.773,285.713 151.773,288.046 152.5,290.5C 153.648,293.289 154.981,295.956 156.5,298.5C 157.403,300.636 158.569,302.636 160,304.5C 160.901,301.929 162.234,299.596 164,297.5C 164.414,297.957 164.914,298.291 165.5,298.5C 174.811,288.023 184.644,278.023 195,268.5C 197.833,269.667 198.667,268.833 197.5,266C 200.345,262.656 203.345,259.489 206.5,256.5C 207.086,256.709 207.586,257.043 208,257.5C 209.378,255.553 210.711,253.553 212,251.5C 212.893,252.711 213.726,252.711 214.5,251.5C 214.291,250.914 213.957,250.414 213.5,250C 214.91,249.632 215.91,248.799 216.5,247.5C 214.838,243.865 213.505,240.198 212.5,236.5 Z"/></g>
<g><path style="opacity:1" fill="#0b5f78" d="M 333.5,235.5 C 335.739,239.649 337.739,243.982 339.5,248.5C 339.19,249.738 338.69,249.738 338,248.5C 337.333,247.167 336.667,245.833 336,244.5C 334.981,245.687 333.814,246.687 332.5,247.5C 331.571,248.689 331.238,250.022 331.5,251.5C 328.835,254.174 326.502,257.174 324.5,260.5C 322.762,265.638 320.762,270.638 318.5,275.5C 313.353,282.29 309.353,289.79 306.5,298C 306.645,298.772 306.978,299.439 307.5,300C 305.372,301.623 304.039,303.789 303.5,306.5C 302.377,308.289 301.044,308.622 299.5,307.5C 300.757,305.321 302.257,303.321 304,301.5C 304.667,299.167 304.667,296.833 304,294.5C 302.624,297.053 301.457,299.72 300.5,302.5C 299.702,302.043 299.369,301.376 299.5,300.5C 300.15,298.565 300.483,296.565 300.5,294.5C 302.267,292.208 303.267,289.542 303.5,286.5C 304.583,286.539 305.583,286.873 306.5,287.5C 308.789,283.845 311.622,279.845 315,275.5C 315.399,272.314 316.232,269.314 317.5,266.5C 317.221,264.657 316.887,262.823 316.5,261C 320.513,255.87 323.346,250.037 325,243.5C 326.697,242.043 328.197,240.377 329.5,238.5C 327.857,232.452 329.191,231.452 333.5,235.5 Z"/></g>
<g><path style="opacity:1" fill="#0f81a0" d="M 350.5,267.5 C 350.762,268.978 350.429,270.311 349.5,271.5C 348.391,270.41 347.391,270.41 346.5,271.5C 344.083,274.282 342.916,277.282 343,280.5C 342,282.833 340.333,284.5 338,285.5C 336.869,289.107 335.536,292.774 334,296.5C 330.777,297.723 329.111,300.056 329,303.5C 327.799,305.909 326.133,307.909 324,309.5C 323.916,313.781 323.249,318.115 322,322.5C 318.658,326.344 315.491,330.344 312.5,334.5C 310.521,333.188 308.855,331.521 307.5,329.5C 308.76,328.618 309.926,327.618 311,326.5C 311.803,323.756 312.803,321.089 314,318.5C 319.957,309.195 325.957,299.862 332,290.5C 333.637,287.283 334.97,283.95 336,280.5C 337,278.833 338.333,277.5 340,276.5C 341.081,272.015 342.914,268.015 345.5,264.5C 347.933,264.273 349.599,265.273 350.5,267.5 Z"/></g>
<g><path style="opacity:1" fill="#0d6e89" d="M 339.5,248.5 C 341.153,251.131 342.819,253.797 344.5,256.5C 345.614,257.885 346.614,259.385 347.5,261C 347.167,261.167 346.833,261.333 346.5,261.5C 344.431,256.812 342.431,256.646 340.5,261C 338.671,261.273 337.171,262.107 336,263.5C 333.032,270.699 329.198,277.366 324.5,283.5C 324.709,284.086 325.043,284.586 325.5,285C 322.482,288.695 320.315,292.862 319,297.5C 316.696,301.797 313.696,305.464 310,308.5C 309.587,311.232 308.92,313.899 308,316.5C 305.154,318.915 302.32,321.249 299.5,323.5C 298.188,322.855 297.188,321.855 296.5,320.5C 298.808,319.359 300.641,317.692 302,315.5C 302.617,314.551 302.451,313.718 301.5,313C 302.416,312.626 303.25,312.126 304,311.5C 305.959,306.95 308.292,302.617 311,298.5C 314.979,290.541 318.979,282.541 323,274.5C 325.201,267.924 328.534,261.924 333,256.5C 333.599,254.465 333.099,252.799 331.5,251.5C 331.238,250.022 331.571,248.689 332.5,247.5C 333.814,246.687 334.981,245.687 336,244.5C 336.667,245.833 337.333,247.167 338,248.5C 338.69,249.738 339.19,249.738 339.5,248.5 Z"/></g>
<g><path style="opacity:1" fill="#0d657e" d="M 219.5,272.5 C 219.768,274.099 219.434,275.432 218.5,276.5C 216.926,278.102 216.259,280.102 216.5,282.5C 216.5,283.167 216.5,283.833 216.5,284.5C 216.167,284.5 215.833,284.5 215.5,284.5C 214.778,284.918 214.278,285.584 214,286.5C 213.667,285.833 213.333,285.167 213,284.5C 212.727,286.329 211.893,287.829 210.5,289C 207.437,291.097 204.437,293.264 201.5,295.5C 205.142,297.189 205.309,299.856 202,303.5C 201.282,302.549 200.449,302.383 199.5,303C 195.611,307.226 191.278,310.726 186.5,313.5C 184.167,315.167 182.167,317.167 180.5,319.5C 179.311,320.429 177.978,320.762 176.5,320.5C 176.649,321.552 176.483,322.552 176,323.5C 173.705,323.851 172.205,325.518 171.5,328.5C 169.926,327.016 168.593,325.349 167.5,323.5C 166.833,323.5 166.167,323.5 165.5,323.5C 162.943,319.392 160.61,315.059 158.5,310.5C 159.268,309.737 159.768,308.737 160,307.5C 160.852,308.571 161.685,309.571 162.5,310.5C 163.63,312.315 164.296,314.315 164.5,316.5C 165.552,316.649 166.552,316.483 167.5,316C 169.842,313.624 172.175,311.291 174.5,309C 175.448,308.517 176.448,308.351 177.5,308.5C 177.178,306.278 177.845,304.444 179.5,303C 182.473,301.69 184.807,299.69 186.5,297C 188.256,296.798 189.922,296.298 191.5,295.5C 199.178,288.414 206.511,280.914 213.5,273C 214.793,272.51 216.127,272.343 217.5,272.5C 218.787,263.286 219.454,263.286 219.5,272.5 Z"/></g>
<g><path style="opacity:1" fill="#4a8560" d="M 218.5,276.5 C 218.741,278.898 218.074,280.898 216.5,282.5C 216.259,280.102 216.926,278.102 218.5,276.5 Z"/></g>
<g><path style="opacity:1" fill="#129ec5" d="M 330.5,346.5 C 327.233,344.189 323.9,341.856 320.5,339.5C 322.045,338.548 323.712,338.215 325.5,338.5C 328.929,345.164 330.929,344.497 331.5,336.5C 334.263,333.656 337.596,331.989 341.5,331.5C 341.695,327.112 343.028,323.112 345.5,319.5C 348.203,317.294 350.703,314.961 353,312.5C 354.191,306.872 356.358,301.706 359.5,297C 360.793,296.51 362.127,296.343 363.5,296.5C 363.336,293.813 363.503,291.146 364,288.5C 365.527,286.779 366.527,284.779 367,282.5C 390.018,299.643 415.851,306.143 444.5,302C 465.65,297.759 483.984,288.259 499.5,273.5C 518.943,289.44 537.943,305.94 556.5,323C 550.079,329.425 543.079,335.091 535.5,340C 533.874,339.805 532.207,339.805 530.5,340C 528.172,344.968 524.172,347.634 518.5,348C 518.833,348.333 519.167,348.667 519.5,349C 476.755,370.47 431.755,376.47 384.5,367C 383.636,365.303 382.303,364.137 380.5,363.5C 378.232,364.544 375.899,364.711 373.5,364C 358.577,359.203 344.244,353.37 330.5,346.5 Z"/></g>
<g><path style="opacity:1" fill="#1191b6" d="M 362.5,279.5 C 361.594,284.644 359.594,289.31 356.5,293.5C 355.284,294.002 354.117,294.335 353,294.5C 352.544,295.744 353.044,296.577 354.5,297C 353.491,299.172 351.824,300.338 349.5,300.5C 349.649,301.552 349.483,302.552 349,303.5C 348.667,303.167 348.333,302.833 348,302.5C 345.505,304.256 344.671,306.423 345.5,309C 343.268,312.632 341.434,316.465 340,320.5C 338.332,324.237 336.999,324.237 336,320.5C 335.632,321.91 334.799,322.91 333.5,323.5C 332.5,326.833 331.5,330.167 330.5,333.5C 329.06,334.952 327.394,335.952 325.5,336.5C 323.482,335.377 321.482,335.377 319.5,336.5C 319.167,336 318.833,335.5 318.5,335C 319.723,332.943 320.723,330.777 321.5,328.5C 322.953,325.212 325.287,322.712 328.5,321C 328.043,320.586 327.709,320.086 327.5,319.5C 328.648,317.851 329.981,316.351 331.5,315C 331.167,314.667 330.833,314.333 330.5,314C 332,312.5 333.5,311 335,309.5C 336.748,304.571 339.415,300.238 343,296.5C 344.618,292.932 345.951,289.265 347,285.5C 349.54,281.717 352.04,278.05 354.5,274.5C 358.141,274.652 360.807,276.318 362.5,279.5 Z"/></g>
<g><path style="opacity:1" fill="#6ea569" d="M 215.5,284.5 C 215.833,284.5 216.167,284.5 216.5,284.5C 216.277,288.162 215.277,291.495 213.5,294.5C 213.959,291.123 214.626,287.789 215.5,284.5 Z"/></g>
<g><path style="opacity:1" fill="#7daf69" d="M 302.5,286.5 C 301.25,289.006 300.584,291.673 300.5,294.5C 300.167,294.5 299.833,294.5 299.5,294.5C 299.018,291.169 300.018,288.503 302.5,286.5 Z"/></g>
<g><path style="opacity:1" fill="#205e59" d="M 304.5,280.5 C 304.483,282.565 304.15,284.565 303.5,286.5C 303.267,289.542 302.267,292.208 300.5,294.5C 300.584,291.673 301.25,289.006 302.5,286.5C 302.595,284.214 303.262,282.214 304.5,280.5 Z"/></g>
<g><path style="opacity:1" fill="#296554" d="M 299.5,294.5 C 299.833,294.5 300.167,294.5 300.5,294.5C 300.483,296.565 300.15,298.565 299.5,300.5C 298.833,301.5 298.167,302.5 297.5,303.5C 297.5,302.5 297.5,301.5 297.5,300.5C 298.363,298.579 299.029,296.579 299.5,294.5 Z"/></g>
<g><path style="opacity:1" fill="#7daf6a" d="M 213.5,295.5 C 213.472,298.916 212.472,301.916 210.5,304.5C 210.69,301.145 211.69,298.145 213.5,295.5 Z"/></g>
<g><path style="opacity:1" fill="#0f6c86" d="M 221.5,262.5 C 221.5,263.5 221.5,264.5 221.5,265.5C 221.59,268.152 220.924,270.485 219.5,272.5C 219.454,263.286 218.787,263.286 217.5,272.5C 216.127,272.343 214.793,272.51 213.5,273C 206.511,280.914 199.178,288.414 191.5,295.5C 189.922,296.298 188.256,296.798 186.5,297C 184.807,299.69 182.473,301.69 179.5,303C 177.845,304.444 177.178,306.278 177.5,308.5C 176.448,308.351 175.448,308.517 174.5,309C 172.175,311.291 169.842,313.624 167.5,316C 166.552,316.483 165.552,316.649 164.5,316.5C 164.296,314.315 163.63,312.315 162.5,310.5C 163.455,308.29 164.955,307.957 167,309.5C 170.938,304.793 175.438,301.626 180.5,300C 182.014,298.561 182.347,297.061 181.5,295.5C 183.833,293.167 186.167,290.833 188.5,288.5C 189.086,288.709 189.586,289.043 190,289.5C 193.427,286.9 195.927,283.567 197.5,279.5C 198.736,278.754 200.07,278.421 201.5,278.5C 201.351,277.448 201.517,276.448 202,275.5C 205.778,271.636 209.778,267.969 214,264.5C 214.333,261.833 214.667,259.167 215,256.5C 215.419,255.328 216.085,254.328 217,253.5C 216.68,256.46 216.68,259.46 217,262.5C 218.385,261.449 219.385,260.116 220,258.5C 220.21,260.058 220.71,261.391 221.5,262.5 Z"/></g>
<g><path style="opacity:1" fill="#1189aa" d="M 350.5,267.5 C 351.794,268.29 352.961,269.29 354,270.5C 354.278,269.584 354.778,268.918 355.5,268.5C 358.192,270.862 360.859,273.196 363.5,275.5C 362.761,275.369 362.094,275.536 361.5,276C 363.566,277.696 365.066,279.529 366,281.5C 364.887,280.695 363.721,280.028 362.5,279.5C 360.807,276.318 358.141,274.652 354.5,274.5C 352.04,278.05 349.54,281.717 347,285.5C 345.951,289.265 344.618,292.932 343,296.5C 339.415,300.238 336.748,304.571 335,309.5C 333.5,311 332,312.5 330.5,314C 330.833,314.333 331.167,314.667 331.5,315C 329.981,316.351 328.648,317.851 327.5,319.5C 327.709,320.086 328.043,320.586 328.5,321C 325.287,322.712 322.953,325.212 321.5,328.5C 320.723,330.777 319.723,332.943 318.5,335C 318.833,335.5 319.167,336 319.5,336.5C 321.482,335.377 323.482,335.377 325.5,336.5C 325.5,337.167 325.5,337.833 325.5,338.5C 323.712,338.215 322.045,338.548 320.5,339.5C 323.9,341.856 327.233,344.189 330.5,346.5C 328.742,346.123 327.075,345.456 325.5,344.5C 324.893,344.624 324.56,344.957 324.5,345.5C 318.185,342.006 312.185,338.006 306.5,333.5C 306.5,332.833 306.5,332.167 306.5,331.5C 308.537,333.53 310.87,335.196 313.5,336.5C 314.4,335.643 314.066,334.976 312.5,334.5C 315.491,330.344 318.658,326.344 322,322.5C 323.249,318.115 323.916,313.781 324,309.5C 326.133,307.909 327.799,305.909 329,303.5C 329.111,300.056 330.777,297.723 334,296.5C 335.536,292.774 336.869,289.107 338,285.5C 340.333,284.5 342,282.833 343,280.5C 342.916,277.282 344.083,274.282 346.5,271.5C 347.391,270.41 348.391,270.41 349.5,271.5C 350.429,270.311 350.762,268.978 350.5,267.5 Z"/></g>
<g><path style="opacity:1" fill="#639861" d="M 210.5,304.5 C 210.59,307.152 209.924,309.485 208.5,311.5C 208.41,308.848 209.076,306.515 210.5,304.5 Z"/></g>
<g><path style="opacity:1" fill="#0c5b71" d="M 215.5,284.5 C 214.626,287.789 213.959,291.123 213.5,294.5C 213.5,294.833 213.5,295.167 213.5,295.5C 211.69,298.145 210.69,301.145 210.5,304.5C 209.076,306.515 208.41,308.848 208.5,311.5C 208.5,311.833 208.5,312.167 208.5,312.5C 207.833,313.5 207.167,314.5 206.5,315.5C 205.105,317.054 204.439,316.721 204.5,314.5C 205.331,312.527 205.498,310.527 205,308.5C 203.852,312.482 201.519,315.482 198,317.5C 197.517,318.448 197.351,319.448 197.5,320.5C 195.5,320.5 193.5,320.5 191.5,320.5C 191.67,321.822 191.337,322.989 190.5,324C 185.737,326.798 181.237,329.964 177,333.5C 177.135,335.425 177.302,337.425 177.5,339.5C 177.19,340.738 176.69,340.738 176,339.5C 173.928,336.029 172.428,332.362 171.5,328.5C 172.205,325.518 173.705,323.851 176,323.5C 176.483,322.552 176.649,321.552 176.5,320.5C 177.978,320.762 179.311,320.429 180.5,319.5C 182.167,317.167 184.167,315.167 186.5,313.5C 191.278,310.726 195.611,307.226 199.5,303C 200.449,302.383 201.282,302.549 202,303.5C 205.309,299.856 205.142,297.189 201.5,295.5C 204.437,293.264 207.437,291.097 210.5,289C 211.893,287.829 212.727,286.329 213,284.5C 213.333,285.167 213.667,285.833 214,286.5C 214.278,285.584 214.778,284.918 215.5,284.5 Z"/></g>
<g><path style="opacity:1" fill="#095366" d="M 206.5,315.5 C 206.737,316.791 206.404,317.791 205.5,318.5C 202.69,323.624 198.357,326.957 192.5,328.5C 190.17,330.993 187.837,333.493 185.5,336C 182.408,336.383 179.742,337.55 177.5,339.5C 177.302,337.425 177.135,335.425 177,333.5C 181.237,329.964 185.737,326.798 190.5,324C 191.337,322.989 191.67,321.822 191.5,320.5C 193.5,320.5 195.5,320.5 197.5,320.5C 197.351,319.448 197.517,318.448 198,317.5C 201.519,315.482 203.852,312.482 205,308.5C 205.498,310.527 205.331,312.527 204.5,314.5C 204.439,316.721 205.105,317.054 206.5,315.5 Z"/></g>
<g><path style="opacity:1" fill="#7aa865" d="M 208.5,312.5 C 207.943,317.165 206.61,321.498 204.5,325.5C 204.674,323.139 205.007,320.806 205.5,318.5C 206.404,317.791 206.737,316.791 206.5,315.5C 207.167,314.5 207.833,313.5 208.5,312.5 Z"/></g>
<g><path style="opacity:1" fill="#094858" d="M 205.5,318.5 C 205.007,320.806 204.674,323.139 204.5,325.5C 203.076,327.515 202.41,329.848 202.5,332.5C 201.076,334.515 200.41,336.848 200.5,339.5C 198.515,344.14 196.848,348.807 195.5,353.5C 195.66,351.801 195.494,350.134 195,348.5C 194.147,350.125 193.147,350.458 192,349.5C 191.695,351.557 191.695,353.557 192,355.5C 191.282,354.549 190.449,354.383 189.5,355C 188.958,357.255 187.791,359.088 186,360.5C 184.643,357.102 182.81,354.102 180.5,351.5C 180.167,351.5 179.833,351.5 179.5,351.5C 175.302,342.237 171.302,332.903 167.5,323.5C 168.593,325.349 169.926,327.016 171.5,328.5C 172.428,332.362 173.928,336.029 176,339.5C 176.69,340.738 177.19,340.738 177.5,339.5C 179.742,337.55 182.408,336.383 185.5,336C 187.837,333.493 190.17,330.993 192.5,328.5C 198.357,326.957 202.69,323.624 205.5,318.5 Z"/></g>
<g><path style="opacity:0.096" fill="#155b63" d="M 165.5,323.5 C 166.167,323.5 166.833,323.5 167.5,323.5C 171.302,332.903 175.302,342.237 179.5,351.5C 178.833,351.167 178.167,350.833 177.5,350.5C 173.222,341.612 169.222,332.612 165.5,323.5 Z"/></g>
<g><path style="opacity:0.031" fill="#257476" d="M 295.5,308.5 C 292.494,318.166 295.494,325.166 304.5,329.5C 304.833,330.5 305.5,331.167 306.5,331.5C 306.5,332.167 306.5,332.833 306.5,333.5C 301.941,330.061 297.608,326.394 293.5,322.5C 292.254,317.506 292.92,312.839 295.5,308.5 Z"/></g>
<g><path style="opacity:1" fill="#76a062" d="M 204.5,325.5 C 204.59,328.152 203.924,330.485 202.5,332.5C 202.41,329.848 203.076,327.515 204.5,325.5 Z"/></g>
<g><path style="opacity:1" fill="#7ca465" d="M 202.5,332.5 C 202.59,335.152 201.924,337.485 200.5,339.5C 200.41,336.848 201.076,334.515 202.5,332.5 Z"/></g>
<g><path style="opacity:0.437" fill="#9dc153" d="M 297.5,300.5 C 297.5,301.5 297.5,302.5 297.5,303.5C 296.691,305.028 296.024,306.694 295.5,308.5C 292.92,312.839 292.254,317.506 293.5,322.5C 289.832,332.505 286.165,342.505 282.5,352.5C 282.305,348.085 282.805,343.751 284,339.5C 286.35,332.451 288.683,325.451 291,318.5C 291.607,315.798 291.44,313.132 290.5,310.5C 290.824,308.431 291.658,308.098 293,309.5C 294.312,306.223 295.812,303.223 297.5,300.5 Z"/></g>
<g><path style="opacity:0.035" fill="#224e42" d="M 177.5,350.5 C 178.167,350.833 178.833,351.167 179.5,351.5C 179.833,351.5 180.167,351.5 180.5,351.5C 182.814,358.795 186.147,365.461 190.5,371.5C 190.443,372.609 190.11,373.609 189.5,374.5C 184.977,366.787 180.977,358.787 177.5,350.5 Z"/></g>
<g><path style="opacity:1" fill="#5c8450" d="M 195.5,355.5 C 195.59,358.152 194.924,360.485 193.5,362.5C 193.41,359.848 194.076,357.515 195.5,355.5 Z"/></g>
<g><path style="opacity:1" fill="#073540" d="M 195.5,353.5 C 195.5,354.167 195.5,354.833 195.5,355.5C 194.076,357.515 193.41,359.848 193.5,362.5C 192.549,363.919 192.216,365.585 192.5,367.5C 191.655,368.671 190.989,370.005 190.5,371.5C 186.147,365.461 182.814,358.795 180.5,351.5C 182.81,354.102 184.643,357.102 186,360.5C 187.791,359.088 188.958,357.255 189.5,355C 190.449,354.383 191.282,354.549 192,355.5C 191.695,353.557 191.695,351.557 192,349.5C 193.147,350.458 194.147,350.125 195,348.5C 195.494,350.134 195.66,351.801 195.5,353.5 Z"/></g>
<g><path style="opacity:0.161" fill="#1296bb" d="M 324.5,345.5 C 324.56,344.957 324.893,344.624 325.5,344.5C 327.075,345.456 328.742,346.123 330.5,346.5C 344.244,353.37 358.577,359.203 373.5,364C 375.899,364.711 378.232,364.544 380.5,363.5C 382.303,364.137 383.636,365.303 384.5,367C 431.755,376.47 476.755,370.47 519.5,349C 519.167,348.667 518.833,348.333 518.5,348C 524.172,347.634 528.172,344.968 530.5,340C 532.207,339.805 533.874,339.805 535.5,340C 543.079,335.091 550.079,329.425 556.5,323C 537.943,305.94 518.943,289.44 499.5,273.5C 483.984,288.259 465.65,297.759 444.5,302C 415.851,306.143 390.018,299.643 367,282.5C 366.527,284.779 365.527,286.779 364,288.5C 363.503,291.146 363.336,293.813 363.5,296.5C 362.127,296.343 360.793,296.51 359.5,297C 356.358,301.706 354.191,306.872 353,312.5C 350.703,314.961 348.203,317.294 345.5,319.5C 343.028,323.112 341.695,327.112 341.5,331.5C 337.596,331.989 334.263,333.656 331.5,336.5C 330.929,344.497 328.929,345.164 325.5,338.5C 325.5,337.833 325.5,337.167 325.5,336.5C 327.394,335.952 329.06,334.952 330.5,333.5C 331.5,330.167 332.5,326.833 333.5,323.5C 334.799,322.91 335.632,321.91 336,320.5C 336.999,324.237 338.332,324.237 340,320.5C 341.434,316.465 343.268,312.632 345.5,309C 344.671,306.423 345.505,304.256 348,302.5C 348.333,302.833 348.667,303.167 349,303.5C 349.483,302.552 349.649,301.552 349.5,300.5C 351.824,300.338 353.491,299.172 354.5,297C 353.044,296.577 352.544,295.744 353,294.5C 354.117,294.335 355.284,294.002 356.5,293.5C 359.594,289.31 361.594,284.644 362.5,279.5C 363.721,280.028 364.887,280.695 366,281.5C 365.066,279.529 363.566,277.696 361.5,276C 362.094,275.536 362.761,275.369 363.5,275.5C 399.418,304.369 437.751,307.869 478.5,286C 485.863,280.982 492.863,275.482 499.5,269.5C 517.98,284.812 536.313,300.312 554.5,316C 558.368,318.162 559.868,321.328 559,325.5C 518.94,359.587 472.44,375.754 419.5,374C 385.17,372.677 353.503,363.177 324.5,345.5 Z"/></g>
<g><path style="opacity:0.808" fill="#9fc04c" d="M 282.5,353.5 C 281.118,360.316 279.118,366.983 276.5,373.5C 247.508,374.5 218.508,374.833 189.5,374.5C 190.11,373.609 190.443,372.609 190.5,371.5C 190.989,370.005 191.655,368.671 192.5,367.5C 192.5,369.167 192.5,370.833 192.5,372.5C 219.5,372.5 246.5,372.5 273.5,372.5C 276.174,365.776 278.341,358.776 280,351.5C 280.333,351.167 280.667,350.833 281,350.5C 281.232,351.737 281.732,352.737 282.5,353.5 Z"/></g>
</svg>
